# 3ds Max Wavefront OBJ Exporter v0.97b - (c)2007 guruware
# File Created: 24.11.2017 16:30:01

#
# object camaraSeguridad
#

v  -20.4769 0.0000 -0.5348
v  -20.4769 0.0000 -5.0000
v  9.5231 0.0000 -5.0000
v  -20.4769 0.0000 5.0000
v  9.5231 0.0000 5.0000
v  -20.4769 10.0000 5.0000
v  9.5231 10.0000 5.0000
v  9.5231 10.0000 -5.0000
v  -20.4769 10.0000 0.5089
v  -20.4769 10.0000 -5.0000
v  -20.4769 5.6726 5.0000
v  -20.4769 4.3819 -5.0000
v  -25.0232 1.2430 -0.0867
v  -25.0232 2.4076 2.7073
v  -25.0232 5.1027 3.5179
v  -25.0232 7.6048 2.6823
v  -25.0232 2.4230 -2.6933
v  -25.0232 8.7158 -0.0045
v  -25.0232 7.6123 -2.6617
v  -25.0232 5.0940 -3.5777
v  -20.4769 3.4671 1.5329
v  -20.4769 2.8018 -0.0632
v  -20.4769 6.5329 1.5329
v  -20.4769 5.0801 2.0181
v  -20.4769 6.5329 -1.5329
v  -20.4769 7.1682 -0.0033
v  -20.4769 3.4671 -1.5329
v  -20.4769 5.0719 -2.0643
v  -22.7846 2.8018 -0.0632
v  -22.7846 3.4671 -1.5329
v  -22.7846 3.4671 1.5329
v  -22.7846 5.0801 2.0181
v  -22.7846 6.5329 1.5329
v  -22.7846 7.1682 -0.0033
v  -22.7846 6.5329 -1.5329
v  -22.7846 5.0719 -2.0643
v  -23.9713 -0.2564 -0.1094
v  -23.9713 1.4186 -3.8094
v  -23.9713 1.3885 3.8369
v  -23.9713 5.1245 4.9606
v  -23.9713 8.6358 3.7879
v  -23.9713 10.2045 -0.0056
v  -23.9713 8.6505 -3.7475
v  -23.9713 5.1151 -5.0334
v  -26.6145 -0.2564 -0.1094
v  -26.6145 1.4186 -3.8094
v  -26.6145 1.3885 3.8369
v  -26.6145 5.1245 4.9606
v  -26.6145 8.6358 3.7879
v  -26.6145 10.2045 -0.0056
v  -26.6145 8.6505 -3.7475
v  -26.6145 5.1151 -5.0334
v  -26.6145 1.2430 -0.0867
v  -26.6145 2.4230 -2.6933
v  -26.6145 2.4076 2.7073
v  -26.6145 5.1027 3.5179
v  -26.6145 7.6048 2.6823
v  -26.6145 8.7158 -0.0045
v  -26.6145 7.6123 -2.6617
v  -26.6145 5.0940 -3.5777
# 60 vertices

vn 0.0000 -1.0000 -0.0000
vn 0.0000 1.0000 -0.0000
vn 0.0000 0.0000 1.0000
vn 1.0000 0.0000 -0.0000
vn 0.0000 0.0000 -1.0000
vn -1.0000 0.0000 -0.0000
vn -1.0000 -0.0000 0.0000
vn -1.0000 0.0000 0.0000
vn -1.0000 -0.0000 -0.0000
vn -0.0000 -0.9110 -0.4124
vn -0.0000 -0.9230 0.3848
vn -0.0000 -0.2880 0.9576
vn 0.0000 0.3168 0.9485
vn 0.0000 0.9241 0.3821
vn 0.0000 0.9235 -0.3835
vn 0.0000 0.3418 -0.9398
vn -0.0000 -0.3143 -0.9493
vn 0.9210 -0.3550 -0.1607
vn 0.9210 -0.3596 0.1499
vn 0.9210 -0.1122 0.3731
vn 0.9210 0.1234 0.3696
vn 0.9210 0.3601 0.1489
vn 0.9210 0.3598 -0.1494
vn 0.9210 0.1332 -0.3662
vn 0.9210 -0.1225 -0.3699
vn 0.0000 0.9110 0.4124
vn 0.0000 0.9230 -0.3848
vn 0.0000 0.2880 -0.9576
vn -0.0000 -0.3168 -0.9485
vn -0.0000 -0.9241 -0.3821
vn -0.0000 -0.9235 0.3835
vn 0.0000 -0.9235 0.3835
vn -0.0000 -0.3418 0.9398
vn 0.0000 0.3143 0.9493
# 34 vertex normals

o camaraSeguridad
g camaraSeguridad
s off
f 1//1 2//1 3//1 4//1 
f 4//1 3//1 5//1 
f 6//2 7//2 8//2 9//2 
f 8//2 10//2 9//2 
f 4//3 5//3 7//3 11//3 
f 7//3 6//3 11//3 
f 5//4 3//4 8//4 7//4 
f 3//5 2//5 12//5 10//5 
f 3//5 10//5 8//5 
f 13//6 14//7 15//8 16//6 
f 17//6 13//6 16//6 18//6 
f 18//6 19//7 20//8 17//6 
f 1//9 4//9 21//9 22//7 
f 11//6 6//6 23//6 24//6 
f 9//6 10//6 25//6 26//6 
f 12//6 2//6 27//6 28//6 
f 23//6 6//6 9//6 26//6 
f 27//7 2//7 1//7 22//9 
f 21//6 4//6 11//6 24//6 
f 25//6 10//6 12//6 28//6 
f 27//10 22//10 29//10 30//10 
f 22//11 21//11 31//11 29//11 
f 21//12 24//12 32//12 31//12 
f 24//13 23//13 33//13 32//13 
f 23//14 26//14 34//14 33//14 
f 26//15 25//15 35//15 34//15 
f 25//16 28//16 36//16 35//16 
f 28//17 27//17 30//17 36//17 
f 30//18 29//18 37//18 38//18 
f 29//19 31//19 39//19 37//19 
f 31//20 32//20 40//20 39//20 
f 32//21 33//21 41//21 40//21 
f 33//22 34//22 42//22 41//22 
f 34//23 35//23 43//23 42//23 
f 35//24 36//24 44//24 43//24 
f 36//25 30//25 38//25 44//25 
f 38//10 37//10 45//10 46//10 
f 37//11 39//11 47//11 45//11 
f 39//12 40//12 48//12 47//12 
f 40//13 41//13 49//13 48//13 
f 41//14 42//14 50//14 49//14 
f 42//15 43//15 51//15 50//15 
f 43//16 44//16 52//16 51//16 
f 44//17 38//17 46//17 52//17 
f 46//6 45//6 53//6 54//6 
f 45//8 47//8 55//8 53//7 
f 47//6 48//6 56//6 55//6 
f 48//6 49//6 57//6 56//6 
f 49//9 50//9 58//9 57//6 
f 50//8 51//8 59//8 58//8 
f 51//6 52//6 60//6 59//6 
f 52//6 46//6 54//6 60//6 
f 54//26 53//26 13//26 17//26 
f 53//27 55//27 14//27 13//27 
f 55//28 56//28 15//28 14//28 
f 56//29 57//29 16//29 15//29 
f 57//30 58//30 18//30 16//30 
f 58//31 59//31 19//31 18//32 
f 59//33 60//33 20//33 19//33 
f 60//34 54//34 17//34 20//34 
# 56 polygons - 4 triangles

#
# object camaraSeguridadPalo
#

v  14.9385 -12.8227 -0.0000
v  14.9385 -13.6950 -2.1058
v  4.7266 -13.6722 -2.1058
v  4.7266 -12.8000 -0.0000
v  14.9385 -15.8008 -2.9781
v  4.7266 -15.7780 -2.9781
v  14.9385 -17.9066 -2.1058
v  4.7266 -17.8838 -2.1058
v  14.9385 -18.7788 0.0000
v  4.7266 -18.7561 0.0000
v  14.9385 -17.9066 2.1058
v  4.7266 -17.8838 2.1058
v  14.9385 -15.8008 2.9781
v  4.7266 -15.7780 2.9781
v  14.9385 -13.6950 2.1058
v  4.7266 -13.6722 2.1058
v  2.9506 -12.5781 -2.0176
v  3.4878 -11.9379 -0.0000
v  1.6537 -14.1236 -2.8533
v  0.3568 -15.6692 -2.0176
v  -0.1804 -16.3094 0.0000
v  0.3568 -15.6692 2.0176
v  1.6537 -14.1236 2.8533
v  2.9506 -12.5781 2.0176
v  1.8235 -10.6246 -1.8235
v  2.5789 -10.6246 -0.0000
v  -0.0000 -10.6246 -2.5789
v  -1.8235 -10.6246 -1.8235
v  -2.5789 -10.6246 0.0000
v  -1.8235 -10.6246 1.8235
v  0.0000 -10.6246 2.5789
v  1.8235 -10.6246 1.8235
v  1.8235 5.3263 -1.8235
v  2.5789 5.3263 0.0000
v  -0.0000 5.3263 -2.5789
v  -1.8235 5.3263 -1.8235
v  -2.5789 5.3263 0.0000
v  -1.8235 5.3263 1.8235
v  0.0000 5.3263 2.5789
v  1.8235 5.3263 1.8235
# 40 vertices

vn 0.0022 1.0000 -0.0000
vn 0.0016 0.7068 -0.7074
vn 0.1713 0.6477 -0.7424
vn 0.3003 0.9538 -0.0000
vn -0.0000 -0.0005 -1.0000
vn -0.0408 -0.0522 -0.9978
vn -0.0016 -0.7074 -0.7068
vn -0.1777 -0.7113 -0.6800
vn -0.0022 -1.0000 -0.0000
vn -0.2211 -0.9753 0.0000
vn -0.0016 -0.7074 0.7068
vn -0.1777 -0.7113 0.6800
vn -0.0000 -0.0005 1.0000
vn -0.0408 -0.0522 0.9978
vn 0.0016 0.7068 0.7074
vn 0.1713 0.6477 0.7424
vn 0.4670 0.5073 -0.7243
vn 0.7069 0.7073 -0.0000
vn -0.0911 -0.0130 -0.9958
vn -0.5562 -0.5013 -0.6628
vn -0.7250 -0.6888 0.0000
vn -0.5562 -0.5013 0.6628
vn -0.0911 -0.0130 0.9958
vn 0.4670 0.5073 0.7243
vn 0.6479 0.2086 -0.7326
vn 0.9525 0.3046 -0.0000
vn -0.0679 0.0069 -0.9977
vn -0.7263 -0.1418 -0.6726
vn -0.9820 -0.1887 0.0000
vn -0.7263 -0.1418 0.6726
vn -0.0679 0.0069 0.9977
vn 0.6479 0.2086 0.7326
vn 0.7071 0.0000 -0.7071
vn 1.0000 0.0000 -0.0000
vn 0.0000 0.0000 -1.0000
vn -0.7071 0.0000 -0.7071
vn -1.0000 0.0000 0.0000
vn -0.7071 -0.0000 0.7071
vn 0.0000 -0.0000 1.0000
vn 0.7071 -0.0000 0.7071
# 40 vertex normals

o camaraSeguridadPalo
g camaraSeguridadPalo
s off
f 61//35 62//36 63//37 64//38 
f 62//36 65//39 66//40 63//37 
f 65//39 67//41 68//42 66//40 
f 67//41 69//43 70//44 68//42 
f 69//43 71//45 72//46 70//44 
f 71//45 73//47 74//48 72//46 
f 73//47 75//49 76//50 74//48 
f 75//49 61//35 64//38 76//50 
f 64//38 63//37 77//51 78//52 
f 63//37 66//40 79//53 77//51 
f 66//40 68//42 80//54 79//53 
f 68//42 70//44 81//55 80//54 
f 70//44 72//46 82//56 81//55 
f 72//46 74//48 83//57 82//56 
f 76//50 84//58 83//57 74//48 
f 76//50 64//38 78//52 84//58 
f 78//52 77//51 85//59 86//60 
f 77//51 79//53 87//61 85//59 
f 79//53 80//54 88//62 87//61 
f 80//54 81//55 89//63 88//62 
f 81//55 82//56 90//64 89//63 
f 82//56 83//57 91//65 90//64 
f 83//57 84//58 92//66 91//65 
f 84//58 78//52 86//60 92//66 
f 86//60 85//59 93//67 94//68 
f 85//59 87//61 95//69 93//67 
f 87//61 88//62 96//70 95//69 
f 88//62 89//63 97//71 96//70 
f 89//63 90//64 98//72 97//71 
f 90//64 91//65 99//73 98//72 
f 91//65 92//66 100//74 99//73 
f 92//66 86//60 94//68 100//74 
# 32 polygons

