# This file uses centimeters as units for non-parametric coordinates.

mtllib Stone_04.mtl
g default
v -4.567630 3.051140 -0.080091
v -0.712117 3.051140 -3.893316
v -3.054288 0.528779 0.361860
v 0.235228 0.047300 -2.524542
v 0.040748 1.063819 3.456897
v 2.725083 0.047300 -0.034693
v -0.432057 3.051140 3.090960
v 3.604115 3.051140 -0.260308
v -4.275171 1.515868 0.342712
v 0.266217 1.517703 -3.984885
v 4.567630 1.926471 -0.347448
v -0.633002 1.924635 3.984884
v -3.801424 3.416735 -2.774282
v 1.763505 3.416735 2.790643
v 2.607537 2.153332 2.822956
v 2.041404 0.120755 1.859329
v -2.113347 0.451781 -2.295424
v -3.472082 1.744564 -3.256664
v -1.506770 0.674639 1.909379
v -0.035972 0.177165 -0.218048
v 1.480161 0.047300 -1.279606
v 2.915693 1.722087 -3.205979
v 1.606233 3.530381 -2.258185
v -1.018965 4.315847 0.008169
v -2.489387 3.471010 1.494963
v -2.454087 1.720251 2.163802
vt 0.521011 0.243976
vt 0.539172 0.119897
vt 0.705431 0.259763
vt 0.603277 0.352848
vt 0.403160 0.588581
vt 0.471808 0.416807
vt 0.599661 0.469040
vt 0.552110 0.577749
vt 0.876307 0.725170
vt 0.827091 0.537043
vt 0.307918 0.983873
vt 0.287489 0.743154
vt 0.563089 0.736800
vt 0.510102 0.983575
vt 0.761026 0.387856
vt 0.901650 0.940956
vt 0.236924 0.286179
vt 0.301584 0.364801
vt 0.224774 0.488245
vt 0.544946 0.005151
vt 0.105729 0.955954
vt 0.087275 0.353956
vt 0.159917 0.180349
vt 0.334353 0.150969
vt 0.361795 0.243737
vt 0.329732 0.056506
vt 0.288464 0.589378
vt 0.104397 0.563842
vt 0.896039 0.301426
vt 0.723318 0.152454
vt 0.671080 0.593851
vt 0.716777 0.737988
vt 0.970162 0.740117
vt 0.905008 0.507861
vt 0.012644 0.741367
vt 0.150994 0.434196
vt 0.471776 0.608763
vt 0.987795 0.889347
vt 0.828730 0.896014
vn -0.181457 -0.696021 -0.694714
vn -0.181457 -0.696021 -0.694714
vn -0.181457 -0.696021 -0.694714
vn -0.181457 -0.696021 -0.694714
vn -0.049088 -0.998277 0.032138
vn -0.049088 -0.998277 0.032138
vn -0.049088 -0.998277 0.032138
vn -0.049088 -0.998277 0.032138
vn 0.740888 -0.525747 0.417941
vn 0.740888 -0.525747 0.417941
vn 0.740888 -0.525747 0.417941
vn 0.740888 -0.525747 0.417941
vn 0.264572 0.964272 0.013464
vn 0.264572 0.964272 0.013464
vn 0.264572 0.964272 0.013464
vn 0.264572 0.964272 0.013464
vn 0.561956 -0.744905 -0.359615
vn 0.561956 -0.744905 -0.359615
vn 0.561956 -0.744905 -0.359615
vn 0.561956 -0.744905 -0.359615
vn -0.477647 -0.649122 0.592026
vn -0.477647 -0.649122 0.592026
vn -0.477647 -0.649122 0.592026
vn -0.477647 -0.649122 0.592026
vn -0.254994 0.068669 -0.964501
vn -0.254994 0.068669 -0.964501
vn -0.254994 0.068669 -0.964501
vn -0.254994 0.068669 -0.964501
vn 0.629766 0.642237 -0.436950
vn 0.629766 0.642238 -0.436950
vn 0.629766 0.642238 -0.436950
vn 0.629766 0.642237 -0.436950
vn 0.736029 0.547980 0.397465
vn 0.736029 0.547980 0.397465
vn 0.736029 0.547980 0.397465
vn 0.736029 0.547980 0.397465
vn -0.589540 0.411468 0.695081
vn -0.589540 0.411468 0.695081
vn -0.589540 0.411468 0.695081
vn -0.589540 0.411468 0.695081
vn -0.108680 0.912255 0.394941
vn -0.108680 0.912255 0.394941
vn -0.108680 0.912255 0.394942
vn -0.108680 0.912255 0.394941
vn 0.197052 0.399935 0.895111
vn 0.197052 0.399935 0.895111
vn 0.197052 0.399935 0.895111
vn 0.197052 0.399935 0.895111
vn 0.379670 -0.412713 0.827961
vn 0.379670 -0.412713 0.827961
vn 0.379670 -0.412713 0.827961
vn 0.379670 -0.412713 0.827961
vn -0.146685 -0.960889 0.234896
vn -0.146685 -0.960889 0.234896
vn -0.146685 -0.960889 0.234896
vn -0.146685 -0.960889 0.234896
vn -0.609172 -0.770314 -0.188482
vn -0.609172 -0.770314 -0.188482
vn -0.609172 -0.770314 -0.188482
vn -0.609172 -0.770314 -0.188482
vn -0.950413 -0.179532 -0.253937
vn -0.950413 -0.179532 -0.253937
vn -0.950413 -0.179532 -0.253937
vn -0.950413 -0.179532 -0.253937
vn -0.102660 -0.992430 0.067409
vn -0.102660 -0.992430 0.067409
vn -0.102660 -0.992430 0.067409
vn -0.102660 -0.992430 0.067409
vn -0.123286 -0.991510 0.041330
vn -0.123286 -0.991510 0.041330
vn -0.123286 -0.991510 0.041330
vn -0.123286 -0.991510 0.041330
vn 0.331358 -0.758596 -0.561011
vn 0.331358 -0.758596 -0.561011
vn 0.331358 -0.758596 -0.561011
vn 0.331358 -0.758596 -0.561011
vn 0.329559 0.478723 -0.813766
vn 0.329559 0.478723 -0.813766
vn 0.329559 0.478723 -0.813766
vn 0.329559 0.478723 -0.813766
vn 0.009369 0.951443 -0.307683
vn 0.009369 0.951443 -0.307683
vn 0.009369 0.951443 -0.307683
vn 0.009369 0.951443 -0.307683
vn -0.336318 0.937299 0.091442
vn -0.336318 0.937299 0.091442
vn -0.336318 0.937299 0.091442
vn -0.336318 0.937299 0.091442
vn -0.662400 0.175850 0.728219
vn -0.662400 0.175850 0.728219
vn -0.662400 0.175850 0.728219
vn -0.662400 0.175850 0.728219
vn -0.520107 -0.622468 0.584826
vn -0.520107 -0.622468 0.584826
vn -0.520107 -0.622468 0.584826
vn -0.520107 -0.622468 0.584826
s off
g Stone_04 Props_Exterior
usemtl lambert2SG
f 17/1/1 18/2/2 10/3/3 4/4/4
f 16/5/5 20/6/6 21/7/7 6/8/8
f 15/9/9 16/32/10 6/31/11 11/10/12
f 23/11/13 24/12/14 14/13/15 8/14/16
f 21/7/17 22/15/18 11/10/19 6/31/20
f 12/36/21 26/17/22 19/18/23 5/19/24
f 18/2/25 13/20/26 2/30/27 10/3/28
f 22/15/29 23/29/30 8/34/31 11/10/32
f 14/33/33 15/9/34 11/10/35 8/34/36
f 7/22/37 25/23/38 26/17/39 12/36/40
f 7/37/41 14/13/42 24/12/43 25/27/44
f 12/16/45 15/9/46 14/33/47 7/38/48
f 5/39/49 16/32/50 15/9/51 12/16/52
f 19/18/53 20/6/54 16/5/55 5/19/56
f 9/24/57 18/2/58 17/1/59 3/25/60
f 1/26/61 13/20/62 18/2/63 9/24/64
f 3/25/65 17/1/66 20/6/67 19/18/68
f 21/7/69 20/6/70 17/1/71 4/4/72
f 10/3/73 22/15/74 21/7/75 4/4/76
f 2/30/77 23/29/78 22/15/79 10/3/80
f 13/35/81 24/12/82 23/11/83 2/21/84
f 25/27/85 24/12/86 13/35/87 1/28/88
f 26/17/89 25/23/90 1/26/91 9/24/92
f 19/18/93 26/17/94 9/24/95 3/25/96
